<svg version="1.1" id="Layer_1" xmlns="http://www.w3.org/2000/svg" xmlns:xlink="http://www.w3.org/1999/xlink" x="0px" y="0px"
	 width="100%" viewBox="0 0 1024 1024" enable-background="new 0 0 1024 1024" xml:space="preserve">
<path fill="#011633" opacity="1.000000" stroke="none" 
	d="
M1.000000,273.000000 
	C1.000000,182.000015 1.000000,91.500023 1.000000,1.000024 
	C342.333282,1.000016 683.666565,1.000016 1025.000000,1.000008 
	C1025.000000,342.333252 1025.000000,683.666504 1025.000000,1024.999756 
	C683.666809,1024.999878 342.333588,1024.999878 1.000199,1025.000000 
	C1.000000,774.500000 1.000000,524.000000 1.000000,273.000000 
M960.011597,72.332497 
	C959.748108,71.257156 959.484619,70.181816 959.096252,68.979408 
	C959.096252,68.979408 959.001770,68.828354 958.781494,68.075325 
	C956.582703,67.719048 954.383911,67.051331 952.185059,67.050789 
	C757.195740,67.002357 562.206360,67.004906 367.217010,67.004776 
	C269.389038,67.004715 171.561050,66.997185 73.733116,67.073532 
	C71.836609,67.075012 69.940895,68.071777 67.459846,68.794914 
	C67.264503,68.857376 67.069160,68.919830 66.407196,68.984665 
	C66.407196,68.984665 65.939644,69.001732 65.376846,69.614532 
	C65.251640,71.761612 65.017166,73.908669 65.016853,76.055763 
	C64.999237,198.523788 65.001083,320.991821 65.001015,443.459839 
	C65.000923,613.082214 64.996414,782.704590 65.049828,952.326965 
	C65.050507,954.500183 65.789726,956.673218 66.591362,958.861511 
	C66.591362,958.861511 66.986198,958.961975 67.215866,959.413269 
	C67.482384,959.613525 67.748909,959.813782 68.584724,960.612976 
	C70.063248,960.741882 71.541756,960.983643 73.020287,960.983704 
	C366.288422,961.000366 659.556580,961.001648 952.824707,960.958923 
	C954.549866,960.958679 956.274902,960.335876 957.984375,959.580872 
	C957.984375,959.580872 957.911377,959.164124 958.407715,958.809204 
	C958.676697,958.505676 958.945618,958.202087 959.609863,957.977539 
	C959.609863,957.977539 960.012451,957.998413 960.600647,957.410156 
	C960.733215,955.765442 960.981934,954.120728 960.981995,952.476013 
	C960.998840,661.063538 960.999512,369.651031 960.958130,78.238548 
	C960.957886,76.505615 960.359619,74.772774 960.011597,72.332497 
z"/>
<path fill="#313844" opacity="1.000000" stroke="none" 
	d="
M959.214600,957.898560 
	C958.945618,958.202087 958.676697,958.505676 957.699341,958.972900 
	C956.158020,959.127686 955.325195,959.110840 954.492310,959.110840 
	C678.476685,959.113770 402.461090,959.121033 126.445473,959.114807 
	C106.625717,959.114380 86.805954,959.015259 66.986198,958.961975 
	C66.986198,958.961975 66.591362,958.861511 66.356415,958.402710 
	C66.113365,757.867798 66.110703,557.791626 66.094803,357.715485 
	C66.087219,262.259155 66.054527,166.802841 66.265114,71.113213 
	C66.622612,70.247375 66.748215,69.614830 66.873810,68.982292 
	C67.069160,68.919830 67.264503,68.857376 67.804146,68.808762 
	C68.148445,68.822609 68.007004,69.017715 67.891891,69.472977 
	C67.776779,365.959686 67.776779,661.991150 67.776779,957.751770 
	C365.034454,957.751770 661.579346,957.751770 958.192322,957.751770 
	C958.192322,955.545593 958.192322,953.713013 958.192322,951.880371 
	C958.193542,683.903076 958.200073,415.925781 958.187622,147.948471 
	C958.186401,121.632805 958.067932,95.317146 958.246704,68.919891 
	C958.660278,68.834976 958.831055,68.831665 959.001770,68.828354 
	C959.001770,68.828354 959.096252,68.979408 959.151733,69.500504 
	C959.191895,72.021294 959.163147,74.020996 959.163147,76.020699 
	C959.160706,260.162018 959.153992,444.303314 959.162415,628.444641 
	C959.167419,738.262634 959.196411,848.080566 959.214600,957.898560 
z"/>
<path fill="#00061C" opacity="1.000000" stroke="none" 
	d="
M958.891602,68.451843 
	C958.831055,68.831665 958.660278,68.834976 957.777527,68.922821 
	C660.712708,69.010803 364.359863,69.014259 68.007004,69.017715 
	C68.007004,69.017715 68.148445,68.822609 68.096626,68.713394 
	C69.940895,68.071777 71.836609,67.075012 73.733116,67.073532 
	C171.561050,66.997185 269.389038,67.004715 367.217010,67.004776 
	C562.206360,67.004906 757.195740,67.002357 952.185059,67.050789 
	C954.383911,67.051331 956.582703,67.719048 958.891602,68.451843 
z"/>
<path fill="#000009" opacity="1.000000" stroke="none" 
	d="
M67.101028,959.187622 
	C86.805954,959.015259 106.625717,959.114380 126.445473,959.114807 
	C402.461090,959.121033 678.476685,959.113770 954.492310,959.110840 
	C955.325195,959.110840 956.158020,959.127686 957.451172,959.150391 
	C957.911377,959.164124 957.984375,959.580872 957.524353,959.791321 
	C660.714722,960.005798 364.365082,960.009888 68.015442,960.014038 
	C67.748909,959.813782 67.482384,959.613525 67.101028,959.187622 
z"/>
<path fill="#062141" opacity="1.000000" stroke="none" 
	d="
M68.300095,960.313477 
	C364.365082,960.009888 660.714722,960.005798 957.532166,960.002808 
	C956.274902,960.335876 954.549866,960.958679 952.824707,960.958923 
	C659.556580,961.001648 366.288422,961.000366 73.020287,960.983704 
	C71.541756,960.983643 70.063248,960.741882 68.300095,960.313477 
z"/>
<path fill="#062141" opacity="1.000000" stroke="none" 
	d="
M66.033211,71.346512 
	C66.054527,166.802841 66.087219,262.259155 66.094803,357.715485 
	C66.110703,557.791626 66.113365,757.867798 66.152847,958.395142 
	C65.789726,956.673218 65.050507,954.500183 65.049828,952.326965 
	C64.996414,782.704590 65.000923,613.082214 65.001015,443.459839 
	C65.001083,320.991821 64.999237,198.523788 65.016853,76.055763 
	C65.017166,73.908669 65.251640,71.761612 65.675507,69.696526 
	C65.993858,70.301186 66.013535,70.823845 66.033211,71.346512 
z"/>
<path fill="#000009" opacity="1.000000" stroke="none" 
	d="
M959.412231,957.938049 
	C959.196411,848.080566 959.167419,738.262634 959.162415,628.444641 
	C959.153992,444.303314 959.160706,260.162018 959.163147,76.020699 
	C959.163147,74.020996 959.191895,72.021294 959.214172,69.564034 
	C959.484619,70.181816 959.748108,71.257156 960.013062,73.149979 
	C960.013794,368.644440 960.013123,663.321411 960.012451,957.998413 
	C960.012451,957.998413 959.609863,957.977539 959.412231,957.938049 
z"/>
<path fill="#062141" opacity="1.000000" stroke="none" 
	d="
M960.306519,957.704285 
	C960.013123,663.321411 960.013794,368.644440 960.027527,73.503677 
	C960.359619,74.772774 960.957886,76.505615 960.958130,78.238548 
	C960.999512,369.651031 960.998840,661.063538 960.981995,952.476013 
	C960.981934,954.120728 960.733215,955.765442 960.306519,957.704285 
z"/>
<path fill="#00061C" opacity="1.000000" stroke="none" 
	d="
M66.265114,71.113213 
	C66.013535,70.823845 65.993858,70.301186 65.956909,69.390121 
	C65.939644,69.001732 66.407196,68.984665 66.640503,68.983475 
	C66.748215,69.614830 66.622612,70.247375 66.265114,71.113213 
z"/>
<path fill="#FFFFFF" opacity="1.000000" stroke="none" 
	d="
M67.891891,69.472977 
	C364.359863,69.014259 660.712708,69.010803 957.534668,69.004410 
	C958.067932,95.317146 958.186401,121.632805 958.187622,147.948471 
	C958.200073,415.925781 958.193542,683.903076 958.192322,951.880371 
	C958.192322,953.713013 958.192322,955.545593 958.192322,957.751770 
	C661.579346,957.751770 365.034454,957.751770 67.776779,957.751770 
	C67.776779,661.991150 67.776779,365.959686 67.891891,69.472977 
M932.063171,929.087036 
	C932.063171,651.551086 932.063171,374.015076 932.063171,96.419563 
	C931.049744,96.312927 930.579590,96.220062 930.109436,96.220108 
	C724.992065,96.241638 519.874695,96.268524 314.757294,96.297707 
	C242.274948,96.308022 169.792587,96.317062 97.310333,96.407005 
	C96.252411,96.408318 95.195786,97.451324 94.035896,98.939438 
	C94.035896,376.194122 94.035896,653.448853 94.035896,930.981506 
	C95.915146,930.981506 97.223198,930.981506 98.531250,930.981506 
	C375.022888,930.981384 651.514526,930.982544 928.006165,930.941162 
	C929.301819,930.940918 930.597351,930.335693 932.063171,929.087036 
z"/>
<path fill="#061127" opacity="1.000000" stroke="none" 
	d="
M931.892944,930.012939 
	C930.597351,930.335693 929.301819,930.940918 928.006165,930.941162 
	C651.514526,930.982544 375.022888,930.981384 98.531250,930.981506 
	C97.223198,930.981506 95.915146,930.981506 94.035896,930.981506 
	C94.035896,653.448853 94.035896,376.194122 94.421478,98.454102 
	C95.252678,97.985764 95.698288,98.002762 96.098251,98.382675 
	C96.050293,99.474541 96.047989,100.203484 96.033539,101.405151 
	C96.016197,374.842316 96.010979,647.806763 96.005852,920.771179 
	C96.005699,928.996399 96.006065,928.997375 104.101196,928.997437 
	C307.408112,928.997620 510.714996,929.002380 714.021912,928.994873 
	C786.345520,928.992249 858.669189,928.959717 931.108704,929.146606 
	C931.401917,929.618652 931.624695,929.838806 931.892944,930.012939 
z"/>
<path fill="#242632" opacity="1.000000" stroke="none" 
	d="
M931.978027,929.549988 
	C931.624695,929.838806 931.401917,929.618652 931.132202,928.685181 
	C931.045166,653.048279 931.052612,378.078674 931.009216,103.109062 
	C931.008911,101.407631 930.300293,99.706306 929.461731,97.997299 
	C816.353699,97.986389 703.706238,97.976463 591.058838,97.981384 
	C426.087189,97.988594 261.115540,98.006439 96.143906,98.019753 
	C95.698288,98.002762 95.252678,97.985764 94.472809,97.988464 
	C95.195786,97.451324 96.252411,96.408318 97.310333,96.407005 
	C169.792587,96.317062 242.274948,96.308022 314.757294,96.297707 
	C519.874695,96.268524 724.992065,96.241638 930.109436,96.220108 
	C930.579590,96.220062 931.049744,96.312927 932.063171,96.419563 
	C932.063171,374.015076 932.063171,651.551086 931.978027,929.549988 
z"/>
<path fill="#001532" opacity="1.000000" stroke="none" 
	d="
M929.922363,98.004929 
	C930.300293,99.706306 931.008911,101.407631 931.009216,103.109062 
	C931.052612,378.078674 931.045166,653.048279 931.016296,928.479370 
	C858.669189,928.959717 786.345520,928.992249 714.021912,928.994873 
	C510.714996,929.002380 307.408112,928.997620 104.101196,928.997437 
	C96.006065,928.997375 96.005699,928.996399 96.005852,920.771179 
	C96.010979,647.806763 96.016197,374.842316 96.341370,101.179840 
	C98.979454,99.987328 101.297478,99.060272 103.615707,99.059723 
	C376.829437,98.995415 650.043213,99.002159 923.256958,98.959335 
	C925.478821,98.958992 927.700562,98.336792 929.922363,98.004929 
M423.132385,772.088074 
	C423.132385,772.088074 423.223633,772.120361 422.690186,772.278687 
	C422.484467,772.574951 422.278717,772.871216 422.063873,773.080322 
	C422.063873,773.080322 422.148987,773.101501 421.501282,773.102539 
	C421.265442,773.558044 421.029572,774.013489 420.616638,774.726013 
	C420.616638,774.726013 420.322021,774.829041 419.848206,774.586121 
	C419.675568,774.861816 419.502960,775.137512 419.225525,775.269226 
	C419.225525,775.269226 419.386353,775.345703 418.811401,775.348083 
	C418.560150,775.616760 418.308899,775.885437 418.053589,776.067444 
	C418.053589,776.067444 418.137573,776.088928 417.369385,776.038879 
	C416.581421,776.236267 415.790344,776.422180 415.005920,776.632751 
	C407.118073,778.750488 399.342621,781.805786 391.316833,782.762207 
	C380.689789,784.028625 369.866211,783.626709 359.130371,784.029114 
	C358.084351,784.068298 357.061310,784.719421 355.969055,786.011353 
	C356.005676,799.663635 356.042297,813.315979 355.539429,827.004211 
	C355.359222,827.002747 355.178986,827.001343 354.993225,826.062683 
	C354.993225,812.750244 354.993225,799.437805 354.993225,786.125366 
	C354.061707,799.193970 354.050079,812.257935 354.101471,825.321655 
	C354.103668,825.882263 354.687836,826.440613 355.184143,827.790833 
	C357.021057,828.191345 358.857269,828.937195 360.695038,828.941101 
	C394.006317,829.011536 427.317810,828.993103 460.629242,828.992798 
	C527.918396,828.992188 595.207520,829.005676 662.496521,828.913147 
	C664.335449,828.910583 666.172852,827.763306 668.426208,826.997864 
	C668.426208,826.997864 668.867493,826.969727 669.529663,826.450195 
	C669.661377,813.170410 669.805542,799.890686 669.878906,786.610596 
	C669.881836,786.086060 669.210510,785.557800 668.415771,785.017517 
	C668.415771,785.017517 668.005676,784.864197 667.375610,784.319336 
	C657.127136,783.877014 646.880920,783.152527 636.629639,783.073181 
	C626.753296,782.996704 617.698608,780.338318 608.548889,775.467285 
	C607.916443,775.525879 607.283997,775.584473 606.489929,775.544861 
	C606.489929,775.544861 606.367310,775.400818 606.496460,774.966492 
	C606.496460,774.966492 606.165588,774.666626 606.165588,774.666626 
	C606.165588,774.666626 605.801086,774.925964 605.352417,774.823242 
	C605.352417,774.823242 605.141296,774.414246 605.356445,773.838196 
	C604.845764,773.604736 604.335144,773.371277 603.923157,773.091919 
	C603.923157,773.091919 603.886169,773.194275 603.702515,772.671814 
	C603.386353,772.504822 603.070251,772.337769 602.873047,772.115417 
	C602.873047,772.115417 602.811035,772.231018 602.869385,771.498657 
	C601.849792,770.713928 600.830200,769.929138 599.939697,769.056396 
	C599.939697,769.056396 599.851929,769.185547 599.869629,768.554321 
	C599.442932,768.333191 599.016235,768.112000 598.234741,767.710266 
	C598.234741,767.710266 598.105652,767.333496 598.426086,766.779114 
	C597.867859,766.237366 597.309692,765.695557 596.854248,765.118225 
	C596.854248,765.118225 596.819275,765.221130 596.872681,764.464233 
	C588.847717,746.855408 586.933777,728.185059 586.974426,709.105347 
	C587.070312,664.111023 587.004883,619.116394 587.004883,574.121887 
	C587.004822,466.301697 587.004639,358.481506 587.005432,250.661316 
	C587.005493,244.011200 587.011963,243.884567 593.816528,244.032272 
	C619.562866,244.591095 645.381104,242.391006 671.531494,246.540253 
	C677.892578,248.774506 684.250488,251.017990 690.616821,253.237259 
	C692.496460,253.892502 694.399963,254.479355 696.758606,255.206650 
	C696.758606,255.206650 696.997070,255.621780 696.746033,256.181244 
	C697.600403,256.469879 698.454834,256.758484 699.803284,257.183380 
	C699.892090,257.329315 699.980835,257.475250 699.773438,258.176605 
	C701.904053,259.405548 704.034607,260.634491 706.038574,261.961700 
	C706.038574,261.961700 706.129944,261.829987 706.170288,262.496765 
	C707.376343,263.331970 708.582458,264.167145 710.092651,265.617615 
	C713.399231,268.842102 716.705811,272.066589 720.027161,275.981476 
	C720.760620,276.596802 721.494141,277.212128 722.122620,277.870636 
	C722.122620,277.870636 722.161621,277.764038 722.283325,278.296234 
	C722.565002,278.510681 722.846741,278.725128 723.039124,278.965942 
	C723.039124,278.965942 723.083008,278.883850 723.081726,279.569672 
	C723.797546,280.333710 724.513367,281.097778 725.124084,281.905426 
	C725.124084,281.905426 725.167175,281.800018 725.113708,282.523376 
	C726.484863,284.304291 727.856079,286.085205 729.124268,287.902771 
	C729.124268,287.902771 729.164368,287.801056 729.073669,288.553009 
	C729.767456,289.334900 730.461182,290.116791 731.049133,290.949402 
	C731.049133,290.949402 731.110840,290.849579 731.048340,291.616516 
	C731.433960,292.869324 731.698242,294.175781 732.224548,295.366394 
	C735.775940,303.399384 739.917908,311.219055 742.829895,319.474213 
	C746.114258,328.785095 748.307983,338.480682 751.042480,348.421906 
	C751.042480,348.421906 751.052307,348.840088 751.012146,349.776703 
	C751.054749,354.819672 751.092346,359.862732 751.210144,364.903931 
	C751.211304,364.954132 752.272034,364.979584 752.992188,365.563751 
	C752.997131,365.753174 753.002014,365.942627 753.274170,366.875946 
	C754.618591,367.244904 755.960632,367.923187 757.307861,367.933838 
	C768.138306,368.019775 778.972656,367.834015 789.799561,368.046875 
	C794.425354,368.137817 795.619751,366.172241 794.633362,361.478455 
	C794.093872,362.996826 793.734619,364.007782 793.052734,364.230530 
	C793.091064,362.816437 793.129456,361.402344 793.690979,359.346710 
	C793.148560,337.951385 792.664001,316.554413 792.047363,295.161224 
	C791.430298,273.751038 790.696716,252.344147 789.982178,230.936859 
	C789.688843,222.147141 789.404663,213.354843 788.898682,204.576248 
	C788.789978,202.691574 787.741211,200.861099 786.928528,198.632874 
	C786.928528,198.632874 786.940552,198.211441 786.760559,197.686646 
	C786.499268,197.432953 786.237915,197.179260 785.367737,196.363617 
	C783.886719,196.243484 782.405701,196.018250 780.924683,196.018112 
	C601.360840,196.001694 421.796997,195.999176 242.233154,196.041397 
	C240.501236,196.041809 238.769455,196.647995 236.428314,197.456024 
	C235.953949,199.176849 235.123672,200.885086 235.062271,202.620514 
	C234.622635,215.046021 234.326523,227.476700 234.010025,239.906403 
	C233.659683,253.665314 233.241821,267.423370 233.021378,281.184540 
	C232.611862,306.746368 232.338364,332.310364 231.963501,357.872803 
	C231.927322,360.339386 231.247269,362.836517 231.504135,365.251556 
	C231.645126,366.577118 233.120041,367.760803 234.932266,369.014923 
	C246.623138,369.011780 258.314026,369.008636 270.819885,368.977844 
	C271.545410,368.083313 272.815979,367.245514 272.915833,366.285889 
	C274.798828,348.184204 279.690125,330.855621 286.013428,313.867859 
	C286.486908,312.595795 286.260895,311.063385 286.422729,309.531281 
	C286.422729,309.531281 286.459686,309.400391 287.153290,309.490021 
	C289.222992,305.674072 291.442719,301.929749 293.310486,298.017395 
	C294.587799,295.341888 295.374481,292.432159 296.460815,289.539612 
	C296.460815,289.539612 296.486969,289.423798 297.200562,289.557343 
	C298.070221,287.958130 298.939880,286.358887 299.841034,284.877045 
	C299.841034,284.877045 299.722717,284.849152 300.224792,284.641693 
	C300.227173,284.316772 300.229553,283.991882 300.322968,283.432587 
	C300.322968,283.432587 300.511414,283.266144 301.137268,283.424652 
	C301.378296,282.884827 301.619324,282.345001 301.886383,281.905640 
	C301.886383,281.905640 301.784119,281.887878 302.316101,281.665100 
	C302.428650,281.313690 302.541199,280.962280 302.703491,280.752716 
	C302.703491,280.752716 302.567413,280.688843 303.211884,280.600189 
	C303.457947,280.036346 303.704010,279.472534 303.989594,278.979523 
	C303.989594,278.979523 303.912506,278.954437 304.603546,278.902740 
	C305.020447,278.199463 305.437347,277.496185 305.881134,276.901978 
	C305.881134,276.901978 305.770386,276.883118 306.308868,276.679932 
	C306.459015,276.340912 306.609192,276.001923 306.795990,275.812744 
	C306.795990,275.812744 306.648590,275.767242 307.330170,275.683563 
	C307.645538,274.975006 307.960907,274.266449 308.414093,273.362366 
	C308.414093,273.362366 308.621338,273.242950 309.052795,273.442230 
	C309.052795,273.442230 309.380951,273.105927 309.380951,273.105927 
	C309.380951,273.105927 309.137848,272.702240 309.291077,272.262360 
	C309.291077,272.262360 309.731537,272.110901 310.040009,272.386505 
	C310.040009,272.386505 310.320953,272.092590 310.320953,272.092590 
	C310.320953,272.092590 310.009735,271.827148 310.250427,271.216888 
	C310.456360,271.143463 310.662323,271.070038 311.050690,271.325531 
	C311.050690,271.325531 311.306946,271.060120 311.306946,271.060120 
	C311.306946,271.060120 310.979034,270.882660 311.219025,270.248169 
	C311.430054,270.166901 311.641052,270.085663 312.051422,270.328186 
	C312.051422,270.328186 312.311584,270.060822 312.311584,270.060822 
	C312.311584,270.060822 311.985840,269.871460 312.118164,269.364410 
	C312.274353,269.286255 312.430542,269.208069 313.148346,269.372009 
	C313.409851,268.877594 313.671356,268.383209 313.975861,267.973022 
	C313.975861,267.973022 313.890198,267.933014 314.605255,267.926941 
	C315.166473,267.126251 315.727692,266.325531 316.431427,265.370270 
	C316.431427,265.370270 316.611816,265.262238 317.130829,265.453583 
	C317.297668,265.160431 317.464478,264.867279 317.923767,264.937988 
	C317.923767,264.937988 317.604950,264.596985 318.332123,264.779541 
	C319.201813,263.818359 320.071503,262.857178 320.973145,261.978943 
	C320.973145,261.978943 320.893829,261.938843 321.581116,261.926666 
	C322.346741,261.205261 323.112335,260.483856 323.901031,259.870605 
	C323.901031,259.870605 323.793335,259.845551 324.460236,259.876801 
	C324.735291,259.417236 325.010315,258.957642 325.432220,258.360443 
	C325.432220,258.360443 325.604340,258.256073 326.274139,258.624207 
	C326.970917,257.911560 327.667664,257.198914 328.499207,256.408508 
	C328.499207,256.408508 328.627838,256.320923 329.147705,256.521210 
	C329.403412,256.281799 329.659088,256.042389 329.927338,255.904861 
	C329.927338,255.904861 329.827240,255.881989 330.603363,255.950409 
	C339.752472,252.596832 348.901581,249.243256 358.807556,245.965881 
	C361.211945,245.363892 363.616333,244.761887 366.658112,244.687363 
	C384.440796,244.786743 402.223511,244.886124 420.597961,245.572571 
	C424.738098,245.711380 428.909210,246.227814 433.010284,245.890961 
	C437.856415,245.492905 439.099976,247.186066 439.096161,251.980118 
	C438.971161,409.015686 439.008759,566.051392 438.915070,723.086975 
	C438.911957,728.335693 438.054749,733.629089 437.136292,738.820312 
	C436.048706,744.967407 434.462067,751.026245 433.066681,757.039062 
	C433.066681,757.039062 433.152252,757.058899 432.539246,757.381470 
	C431.393066,759.965881 430.246918,762.550293 429.033752,765.038330 
	C429.033752,765.038330 429.138794,765.090576 428.411957,765.146912 
	C428.220642,765.887451 428.029327,766.628052 427.629242,767.837952 
	C427.463989,767.882690 427.298706,767.927490 426.966888,767.677917 
	C426.966888,767.677917 426.743347,767.921143 426.743347,767.921143 
	C426.743347,767.921143 427.060608,768.025024 426.908813,768.605713 
	C426.736877,768.708130 426.564941,768.810486 425.838440,768.670166 
	C425.600861,769.168030 425.363281,769.665833 425.043854,770.042786 
	C425.043854,770.042786 425.164124,770.125549 424.535248,770.082214 
	C424.021973,770.384766 423.508698,770.687317 423.026001,771.592529 
	C423.065613,771.789734 423.105225,771.986877 423.132385,772.088074 
z"/>
<path fill="#062141" opacity="1.000000" stroke="none" 
	d="
M929.461731,97.997299 
	C927.700562,98.336792 925.478821,98.958992 923.256958,98.959335 
	C650.043213,99.002159 376.829437,98.995415 103.615707,99.059723 
	C101.297478,99.060272 98.979454,99.987328 96.353516,100.707108 
	C96.047989,100.203484 96.050293,99.474541 96.098251,98.382675 
	C261.115540,98.006439 426.087189,97.988594 591.058838,97.981384 
	C703.706238,97.976463 816.353699,97.986389 929.461731,97.997299 
z"/>
<path fill="#FEFEFF" opacity="1.000000" stroke="none" 
	d="
M793.167847,359.988251 
	C793.129456,361.402344 793.091064,362.816437 793.028442,365.058716 
	C779.671753,365.968597 766.339355,366.050323 753.006897,366.132080 
	C753.002014,365.942627 752.997131,365.753174 753.000732,364.835693 
	C752.356934,359.018433 751.704651,353.929260 751.052368,348.840088 
	C751.052307,348.840088 751.042480,348.421906 751.205566,347.933289 
	C748.557373,327.168884 741.950989,308.251495 731.110840,290.849579 
	C731.110840,290.849579 731.049133,290.949402 731.038757,290.610229 
	C730.407043,289.447723 729.785706,288.624390 729.164368,287.801056 
	C729.164368,287.801056 729.124268,287.902771 729.102905,287.547363 
	C727.776794,285.394623 726.471985,283.597321 725.167175,281.800018 
	C725.167175,281.800018 725.124084,281.905426 725.091675,281.577484 
	C724.400513,280.460968 723.741760,279.672424 723.083008,278.883850 
	C723.083008,278.883850 723.039124,278.965942 723.011902,278.689453 
	C722.710327,278.196655 722.435974,277.980347 722.161621,277.764038 
	C722.161621,277.764038 722.122620,277.870636 722.091675,277.561401 
	C721.377991,276.598450 720.695190,275.944733 720.012390,275.291046 
	C716.705811,272.066589 713.399231,268.842102 709.926880,264.993042 
	C708.550720,263.522278 707.340332,262.676147 706.129944,261.830017 
	C706.129944,261.829987 706.038574,261.961700 705.966064,261.610962 
	C703.952271,260.047241 702.010925,258.834229 700.069641,257.621185 
	C699.980835,257.475250 699.892090,257.329315 699.419434,256.925110 
	C698.356018,256.318512 697.676575,255.970139 696.997070,255.621780 
	C696.997070,255.621780 696.758606,255.206650 696.267151,254.977051 
	C687.512146,251.550079 679.248657,248.352707 670.599548,245.060394 
	C667.849304,244.626694 665.484680,244.287949 662.807190,243.778076 
	C661.333557,243.462784 660.172729,243.318619 658.550049,243.085114 
	C634.065918,243.021286 610.043701,243.046783 585.602417,243.205948 
	C585.147522,244.003220 585.080261,244.666809 585.080261,245.330414 
	C585.086243,400.613953 585.091248,555.897522 585.143311,711.181030 
	C585.144531,714.818604 585.677612,718.456116 585.919861,722.542053 
	C586.246582,727.235474 586.322449,731.531128 587.043762,735.715515 
	C588.819885,746.019531 590.348938,756.453613 596.819275,765.221130 
	C596.819275,765.221130 596.854248,765.118225 596.860901,765.395630 
	C597.280273,766.226562 597.692993,766.780029 598.105652,767.333496 
	C598.105652,767.333496 598.234741,767.710266 598.529724,768.005981 
	C599.167114,768.596252 599.509521,768.890930 599.851929,769.185547 
	C599.851929,769.185547 599.939697,769.056396 599.981689,769.397278 
	C600.952881,770.569092 601.881958,771.400024 602.811035,772.231018 
	C602.811035,772.231018 602.873047,772.115417 602.910522,772.397949 
	C603.260742,772.851685 603.573486,773.023010 603.886169,773.194275 
	C603.886169,773.194275 603.923157,773.091919 603.949219,773.342285 
	C604.363892,773.866516 604.752625,774.140381 605.141296,774.414246 
	C605.141296,774.414246 605.352417,774.823242 605.634521,774.991577 
	C606.032349,775.304932 606.182556,775.385254 606.367310,775.400818 
	C606.367310,775.400818 606.489929,775.544861 606.719116,775.745056 
	C607.209534,776.076355 607.484802,776.121277 607.946533,776.389038 
	C613.416321,778.813965 618.587524,782.275513 624.035339,782.786255 
	C638.628784,784.154419 653.340759,784.258118 668.005676,784.864197 
	C668.005676,784.864197 668.415771,785.017517 668.701538,785.487305 
	C668.947327,799.627991 668.907410,813.298828 668.867493,826.969727 
	C668.867493,826.969727 668.426208,826.997864 667.753662,826.997925 
	C563.413696,826.988037 459.746307,826.978149 356.078918,826.968262 
	C356.042297,813.315979 356.005676,799.663635 356.463989,785.514771 
	C366.582153,785.011292 376.219788,785.332764 385.824921,784.912292 
	C397.192017,784.414734 408.537415,783.299866 418.137573,776.088928 
	C418.137573,776.088928 418.053589,776.067444 418.321289,776.046570 
	C418.854797,775.799011 419.120575,775.572327 419.386353,775.345703 
	C419.386353,775.345703 419.225525,775.269226 419.472839,775.302246 
	C419.967010,775.221436 420.167603,775.052673 420.322021,774.829041 
	C420.322021,774.829041 420.616638,774.726013 420.913422,774.459167 
	C421.523132,773.828735 421.836060,773.465088 422.148987,773.101501 
	C422.148987,773.101501 422.063873,773.080322 422.331085,773.035400 
	C422.806763,772.700439 423.015198,772.410400 423.223633,772.120361 
	C423.223633,772.120361 423.132385,772.088074 423.400696,772.048645 
	C423.867126,771.704956 424.065216,771.400757 424.496887,771.033081 
	C424.987823,770.746216 425.132385,770.464844 425.164124,770.125549 
	C425.164124,770.125549 425.043854,770.042786 425.308350,770.036255 
	C425.846252,769.657471 426.119659,769.285095 426.393036,768.912781 
	C426.564941,768.810486 426.736877,768.708130 426.964600,768.291138 
	C427.020355,767.976501 427.133423,767.972229 427.133423,767.972229 
	C427.298706,767.927490 427.463989,767.882690 427.906921,767.400696 
	C428.502686,766.339172 428.820740,765.714844 429.138794,765.090576 
	C429.138794,765.090576 429.033752,765.038330 429.374573,764.924805 
	C430.861023,762.227112 432.006653,759.643005 433.152252,757.058899 
	C433.152252,757.058899 433.066681,757.039062 433.410889,756.926514 
	C440.253387,742.532043 440.887939,727.194519 440.898987,711.987915 
	C441.011414,557.129944 440.891296,402.271790 440.799042,247.413727 
	C440.798370,246.260056 440.283295,245.106674 439.557892,243.811752 
	C414.745148,243.833527 390.382935,243.996704 366.020721,244.159882 
	C363.616333,244.761887 361.211945,245.363892 358.253723,245.596634 
	C347.725555,246.990997 338.253357,250.068222 329.827240,255.881989 
	C329.827240,255.881989 329.927338,255.904861 329.691406,255.907379 
	C329.126587,255.940109 328.850708,256.077118 328.627838,256.320923 
	C328.627838,256.320923 328.499207,256.408508 328.196228,256.588806 
	C327.130280,257.264771 326.367310,257.760406 325.604340,258.256073 
	C325.604340,258.256073 325.432220,258.360443 325.138733,258.569611 
	C324.494598,259.134369 324.143951,259.489960 323.793335,259.845520 
	C323.793335,259.845551 323.901031,259.870605 323.584961,259.912201 
	C322.477203,260.615479 321.685516,261.277161 320.893829,261.938843 
	C320.893829,261.938843 320.973145,261.978943 320.659058,262.034027 
	C319.431641,262.925079 318.518280,263.761017 317.604950,264.596985 
	C317.604950,264.596985 317.923767,264.937988 317.574036,264.813904 
	C316.968872,264.825745 316.764709,265.016541 316.611816,265.262238 
	C316.611816,265.262238 316.431427,265.370270 316.125702,265.615479 
	C315.176727,266.551483 314.533447,267.242249 313.890198,267.933014 
	C313.890198,267.933014 313.975861,267.973022 313.728180,268.003906 
	C313.182587,268.399841 312.884674,268.764862 312.586761,269.129883 
	C312.430542,269.208069 312.274353,269.286255 312.049835,269.655579 
	C311.981506,269.946777 311.852081,270.004425 311.852081,270.004425 
	C311.641052,270.085663 311.430054,270.166901 311.102814,270.600403 
	C310.986603,270.952667 310.868317,270.996613 310.868317,270.996613 
	C310.662323,271.070038 310.456360,271.143463 310.088806,271.574036 
	C309.927185,271.931152 309.731537,272.110901 309.731537,272.110901 
	C309.731537,272.110901 309.291077,272.262360 309.100342,272.542419 
	C308.768890,272.932037 308.672791,273.072205 308.621338,273.242950 
	C308.621338,273.242950 308.414093,273.362366 308.132202,273.641479 
	C307.449707,274.536163 307.049164,275.151703 306.648621,275.767242 
	C306.648590,275.767242 306.795990,275.812744 306.524963,275.854614 
	C306.092712,276.225342 305.931549,276.554230 305.770386,276.883118 
	C305.770386,276.883118 305.881134,276.901978 305.593445,276.973328 
	C304.841339,277.681305 304.376923,278.317871 303.912537,278.954437 
	C303.912506,278.954437 303.989594,278.979523 303.701721,279.066895 
	C303.131714,279.665802 302.849548,280.177338 302.567413,280.688843 
	C302.567413,280.688843 302.703491,280.752716 302.445618,280.821259 
	C302.053223,281.222504 301.918671,281.555176 301.784119,281.887878 
	C301.784119,281.887878 301.886383,281.905640 301.634705,281.951294 
	C301.092529,282.420013 300.801971,282.843079 300.511414,283.266144 
	C300.511414,283.266144 300.322968,283.432587 300.140930,283.720581 
	C299.842255,284.278137 299.763550,284.558319 299.722717,284.849152 
	C299.722717,284.849152 299.841034,284.877045 299.538452,284.975159 
	C298.319580,286.523468 297.403259,287.973633 296.486969,289.423798 
	C296.486969,289.423798 296.460815,289.539612 296.240967,289.863831 
	C292.833954,296.592133 289.646820,302.996277 286.459686,309.400391 
	C286.459686,309.400391 286.422729,309.531281 286.227417,309.895355 
	C279.732880,324.964172 275.413086,340.226105 272.890106,356.026184 
	C272.236450,360.119720 270.982300,364.117340 269.540070,368.083374 
	C257.384796,368.059418 245.693436,368.111145 233.611694,367.944611 
	C233.486771,351.677948 233.701218,335.628540 234.028168,319.581390 
	C234.720139,285.619049 235.465134,251.657761 236.202484,217.696335 
	C236.339371,211.392288 236.542389,205.089661 236.727737,198.316101 
	C356.689056,198.316101 475.607025,198.332214 594.525024,198.301086 
	C615.666687,198.295547 636.808289,198.093674 658.413696,198.078125 
	C701.565186,198.186325 744.252869,198.198883 786.940552,198.211441 
	C786.940552,198.211441 786.928528,198.632874 786.967407,199.275116 
	C789.060181,253.274323 791.114014,306.631287 793.167847,359.988251 
z"/>
<path fill="#061127" opacity="1.000000" stroke="none" 
	d="
M440.008423,243.953156 
	C440.283295,245.106674 440.798370,246.260056 440.799042,247.413727 
	C440.891296,402.271790 441.011414,557.129944 440.898987,711.987915 
	C440.887939,727.194519 440.253387,742.532043 433.423401,756.968628 
	C434.462067,751.026245 436.048706,744.967407 437.136292,738.820312 
	C438.054749,733.629089 438.911957,728.335693 438.915070,723.086975 
	C439.008759,566.051392 438.971161,409.015686 439.096161,251.980118 
	C439.099976,247.186066 437.856415,245.492905 433.010284,245.890961 
	C428.909210,246.227814 424.738098,245.711380 420.769806,245.275543 
	C427.297241,244.636734 433.652863,244.294937 440.008423,243.953156 
z"/>
<path fill="#00061C" opacity="1.000000" stroke="none" 
	d="
M657.949951,197.982452 
	C636.808289,198.093674 615.666687,198.295547 594.525024,198.301086 
	C475.607025,198.332214 356.689056,198.316101 236.727737,198.316101 
	C236.542389,205.089661 236.339371,211.392288 236.202484,217.696335 
	C235.465134,251.657761 234.720139,285.619049 234.028168,319.581390 
	C233.701218,335.628540 233.486771,351.677948 233.610168,368.156006 
	C233.998978,368.585663 233.993515,369.008453 233.993515,369.008453 
	C233.120041,367.760803 231.645126,366.577118 231.504135,365.251556 
	C231.247269,362.836517 231.927322,360.339386 231.963501,357.872803 
	C232.338364,332.310364 232.611862,306.746368 233.021378,281.184540 
	C233.241821,267.423370 233.659683,253.665314 234.010025,239.906403 
	C234.326523,227.476700 234.622635,215.046021 235.062271,202.620514 
	C235.123672,200.885086 235.953949,199.176849 237.063156,197.218231 
	C238.139252,196.993790 238.580505,197.007141 239.320770,197.305267 
	C241.601105,197.710800 243.582413,197.936722 245.563766,197.937088 
	C305.380890,197.948273 365.197998,197.926788 425.015106,197.932190 
	C502.660065,197.939209 580.304993,197.964828 657.949951,197.982452 
z"/>
<path fill="#061127" opacity="1.000000" stroke="none" 
	d="
M586.021484,243.072296 
	C610.043701,243.046783 634.065918,243.021286 658.813171,243.331467 
	C660.732117,243.761169 661.926086,243.855179 663.119995,243.949203 
	C665.484680,244.287949 667.849304,244.626694 670.613892,245.274628 
	C671.013733,245.583832 671.048279,246.011902 671.048279,246.011902 
	C645.381104,242.391006 619.562866,244.591095 593.816528,244.032272 
	C587.011963,243.884567 587.005493,244.011200 587.005432,250.661316 
	C587.004639,358.481506 587.004822,466.301697 587.004883,574.121887 
	C587.004883,619.116394 587.070312,664.111023 586.974426,709.105347 
	C586.933777,728.185059 588.847717,746.855408 596.845947,764.842651 
	C590.348938,756.453613 588.819885,746.019531 587.043762,735.715515 
	C586.322449,731.531128 586.246582,727.235474 585.983521,722.070068 
	C586.067078,561.790588 586.044312,402.431427 586.021484,243.072296 
z"/>
<path fill="#00061C" opacity="1.000000" stroke="none" 
	d="
M355.809174,826.986206 
	C459.746307,826.978149 563.413696,826.988037 667.546021,827.073914 
	C666.172852,827.763306 664.335449,828.910583 662.496521,828.913147 
	C595.207520,829.005676 527.918396,828.992188 460.629242,828.992798 
	C427.317810,828.993103 394.006317,829.011536 360.695038,828.941101 
	C358.857269,828.937195 357.021057,828.191345 355.092072,827.395386 
	C355.000000,827.000000 354.998779,827.000000 354.998779,827.000000 
	C355.178986,827.001343 355.359222,827.002747 355.809174,826.986206 
z"/>
<path fill="#062141" opacity="1.000000" stroke="none" 
	d="
M239.021759,197.020493 
	C238.580505,197.007141 238.139252,196.993790 237.367798,196.975906 
	C238.769455,196.647995 240.501236,196.041809 242.233154,196.041397 
	C421.796997,195.999176 601.360840,196.001694 780.924683,196.018112 
	C782.405701,196.018250 783.886719,196.243484 785.206299,196.667435 
	C603.037109,196.987671 421.029449,197.004089 239.021759,197.020493 
z"/>
<path fill="#000009" opacity="1.000000" stroke="none" 
	d="
M239.320770,197.305267 
	C421.029449,197.004089 603.037109,196.987671 785.510742,196.948410 
	C786.237915,197.179260 786.499268,197.432953 786.850586,197.949036 
	C744.252869,198.198883 701.565186,198.186325 658.413696,198.078125 
	C580.304993,197.964828 502.660065,197.939209 425.015106,197.932190 
	C365.197998,197.926788 305.380890,197.948273 245.563766,197.937088 
	C243.582413,197.936722 241.601105,197.710800 239.320770,197.305267 
z"/>
<path fill="#000009" opacity="1.000000" stroke="none" 
	d="
M793.429443,359.667480 
	C791.114014,306.631287 789.060181,253.274323 787.065918,199.461502 
	C787.741211,200.861099 788.789978,202.691574 788.898682,204.576248 
	C789.404663,213.354843 789.688843,222.147141 789.982178,230.936859 
	C790.696716,252.344147 791.430298,273.751038 792.047363,295.161224 
	C792.664001,316.554413 793.148560,337.951385 793.429443,359.667480 
z"/>
<path fill="#00061C" opacity="1.000000" stroke="none" 
	d="
M270.003967,368.159027 
	C270.982300,364.117340 272.236450,360.119720 272.890106,356.026184 
	C275.413086,340.226105 279.732880,324.964172 286.196106,309.955719 
	C286.260895,311.063385 286.486908,312.595795 286.013428,313.867859 
	C279.690125,330.855621 274.798828,348.184204 272.915833,366.285889 
	C272.815979,367.245514 271.545410,368.083313 270.411987,368.780029 
	C270.004089,368.582184 270.003967,368.159027 270.003967,368.159027 
z"/>
<path fill="#061127" opacity="1.000000" stroke="none" 
	d="
M731.079590,291.233032 
	C741.950989,308.251495 748.557373,327.168884 751.172363,347.726807 
	C748.307983,338.480682 746.114258,328.785095 742.829895,319.474213 
	C739.917908,311.219055 735.775940,303.399384 732.224548,295.366394 
	C731.698242,294.175781 731.433960,292.869324 731.079590,291.233032 
z"/>
<path fill="#000009" opacity="1.000000" stroke="none" 
	d="
M753.140503,366.504028 
	C766.339355,366.050323 779.671753,365.968597 793.189819,365.452789 
	C793.734619,364.007782 794.093872,362.996826 794.633362,361.478455 
	C795.619751,366.172241 794.425354,368.137817 789.799561,368.046875 
	C778.972656,367.834015 768.138306,368.019775 757.307861,367.933838 
	C755.960632,367.923187 754.618591,367.244904 753.140503,366.504028 
z"/>
<path fill="#00061C" opacity="1.000000" stroke="none" 
	d="
M417.753479,776.063904 
	C408.537415,783.299866 397.192017,784.414734 385.824921,784.912292 
	C376.219788,785.332764 366.582153,785.011292 356.493256,785.052307 
	C357.061310,784.719421 358.084351,784.068298 359.130371,784.029114 
	C369.866211,783.626709 380.689789,784.028625 391.316833,782.762207 
	C399.342621,781.805786 407.118073,778.750488 415.005920,776.632751 
	C415.790344,776.422180 416.581421,776.236267 417.753479,776.063904 
z"/>
<path fill="#00061C" opacity="1.000000" stroke="none" 
	d="
M667.690674,784.591797 
	C653.340759,784.258118 638.628784,784.154419 624.035339,782.786255 
	C618.587524,782.275513 613.416321,778.813965 608.255493,776.362549 
	C608.597595,776.005554 608.803162,775.983948 609.008789,775.962341 
	C617.698608,780.338318 626.753296,782.996704 636.629639,783.073181 
	C646.880920,783.152527 657.127136,783.877014 667.690674,784.591797 
z"/>
<path fill="#000009" opacity="1.000000" stroke="none" 
	d="
M439.557922,243.811752 
	C433.652863,244.294937 427.297241,244.636734 420.473938,244.982025 
	C402.223511,244.886124 384.440796,244.786743 366.339417,244.423615 
	C390.382935,243.996704 414.745148,243.833527 439.557922,243.811752 
z"/>
<path fill="#00061C" opacity="1.000000" stroke="none" 
	d="
M330.215302,255.916199 
	C338.253357,250.068222 347.725555,246.990997 357.875305,245.558533 
	C348.901581,249.243256 339.752472,252.596832 330.215302,255.916199 
z"/>
<path fill="#000009" opacity="1.000000" stroke="none" 
	d="
M669.198608,826.709961 
	C668.907410,813.298828 668.947327,799.627991 668.920288,785.494202 
	C669.210510,785.557800 669.881836,786.086060 669.878906,786.610596 
	C669.805542,799.890686 669.661377,813.170410 669.198608,826.709961 
z"/>
<path fill="#00061C" opacity="1.000000" stroke="none" 
	d="
M355.000427,827.000000 
	C354.687836,826.440613 354.103668,825.882263 354.101471,825.321655 
	C354.050079,812.257935 354.061707,799.193970 354.993225,786.125366 
	C354.993225,799.437805 354.993225,812.750244 354.996002,826.531372 
	C354.998779,827.000000 355.000000,827.000000 355.000427,827.000000 
z"/>
<path fill="#242632" opacity="1.000000" stroke="none" 
	d="
M671.289917,246.276077 
	C671.048279,246.011902 671.013733,245.583832 670.999390,245.369583 
	C679.248657,248.352707 687.512146,251.550079 696.034119,254.922485 
	C694.399963,254.479355 692.496460,253.892502 690.616821,253.237259 
	C684.250488,251.017990 677.892578,248.774506 671.289917,246.276077 
z"/>
<path fill="#000009" opacity="1.000000" stroke="none" 
	d="
M269.540070,368.083374 
	C270.003967,368.159027 270.004089,368.582184 270.004486,368.793823 
	C258.314026,369.008636 246.623138,369.011780 234.462891,369.011688 
	C233.993515,369.008453 233.998978,368.585663 234.000519,368.374268 
	C245.693436,368.111145 257.384796,368.059418 269.540070,368.083374 
z"/>
<path fill="#00061C" opacity="1.000000" stroke="none" 
	d="
M286.806488,309.445190 
	C289.646820,302.996277 292.833954,296.592133 296.200806,289.907593 
	C295.374481,292.432159 294.587799,295.341888 293.310486,298.017395 
	C291.442719,301.929749 289.222992,305.674072 286.806488,309.445190 
z"/>
<path fill="#061127" opacity="1.000000" stroke="none" 
	d="
M751.032227,349.308411 
	C751.704651,353.929260 752.356934,359.018433 752.923645,364.562073 
	C752.272034,364.979584 751.211304,364.954132 751.210144,364.903931 
	C751.092346,359.862732 751.054749,354.819672 751.032227,349.308411 
z"/>
<path fill="#061127" opacity="1.000000" stroke="none" 
	d="
M432.845764,757.220215 
	C432.006653,759.643005 430.861023,762.227112 429.408081,764.972900 
	C430.246918,762.550293 431.393066,759.965881 432.845764,757.220215 
z"/>
<path fill="#242632" opacity="1.000000" stroke="none" 
	d="
M699.921509,257.898895 
	C702.010925,258.834229 703.952271,260.047241 706.029419,261.561829 
	C704.034607,260.634491 701.904053,259.405548 699.921509,257.898895 
z"/>
<path fill="#061127" opacity="1.000000" stroke="none" 
	d="
M725.140442,282.161682 
	C726.471985,283.597321 727.776794,285.394623 729.154419,287.529022 
	C727.856079,286.085205 726.484863,284.304291 725.140442,282.161682 
z"/>
<path fill="#00061C" opacity="1.000000" stroke="none" 
	d="
M296.843750,289.490570 
	C297.403259,287.973633 298.319580,286.523468 299.522705,284.916473 
	C298.939880,286.358887 298.070221,287.958130 296.843750,289.490570 
z"/>
<path fill="#242632" opacity="1.000000" stroke="none" 
	d="
M706.150146,262.163391 
	C707.340332,262.676147 708.550720,263.522278 709.774780,264.685364 
	C708.582458,264.167145 707.376343,263.331970 706.150146,262.163391 
z"/>
<path fill="#061127" opacity="1.000000" stroke="none" 
	d="
M602.840210,771.864868 
	C601.881958,771.400024 600.952881,770.569092 599.917236,769.441284 
	C600.830200,769.929138 601.849792,770.713928 602.840210,771.864868 
z"/>
<path fill="#00061C" opacity="1.000000" stroke="none" 
	d="
M317.968536,264.688263 
	C318.518280,263.761017 319.431641,262.925079 320.643066,261.992554 
	C320.071503,262.857178 319.201813,263.818359 317.968536,264.688263 
z"/>
<path fill="#061127" opacity="1.000000" stroke="none" 
	d="
M720.019775,275.636261 
	C720.695190,275.944733 721.377991,276.598450 722.144165,277.539795 
	C721.494141,277.212128 720.760620,276.596802 720.019775,275.636261 
z"/>
<path fill="#00061C" opacity="1.000000" stroke="none" 
	d="
M325.939240,258.440125 
	C326.367310,257.760406 327.130280,257.264771 328.128845,256.627686 
	C327.667664,257.198914 326.970917,257.911560 325.939240,258.440125 
z"/>
<path fill="#061127" opacity="1.000000" stroke="none" 
	d="
M729.119019,288.177032 
	C729.785706,288.624390 730.407043,289.447723 731.091675,290.584900 
	C730.461182,290.116791 729.767456,289.334900 729.119019,288.177032 
z"/>
<path fill="#00061C" opacity="1.000000" stroke="none" 
	d="
M321.237488,261.932739 
	C321.685516,261.277161 322.477203,260.615479 323.573425,259.858124 
	C323.112335,260.483856 322.346741,261.205261 321.237488,261.932739 
z"/>
<path fill="#061127" opacity="1.000000" stroke="none" 
	d="
M428.775391,765.118774 
	C428.820740,765.714844 428.502686,766.339172 428.011353,767.166016 
	C428.029327,766.628052 428.220642,765.887451 428.775391,765.118774 
z"/>
<path fill="#00061C" opacity="1.000000" stroke="none" 
	d="
M314.247742,267.929993 
	C314.533447,267.242249 315.176727,266.551483 316.054443,265.692780 
	C315.727692,266.325531 315.166473,267.126251 314.247742,267.929993 
z"/>
<path fill="#242632" opacity="1.000000" stroke="none" 
	d="
M696.871582,255.901520 
	C697.676575,255.970139 698.356018,256.318512 699.172363,256.856995 
	C698.454834,256.758484 697.600403,256.469879 696.871582,255.901520 
z"/>
<path fill="#061127" opacity="1.000000" stroke="none" 
	d="
M723.082397,279.226746 
	C723.741760,279.672424 724.400513,280.460968 725.144287,281.555695 
	C724.513367,281.097778 723.797546,280.333710 723.082397,279.226746 
z"/>
<path fill="#00061C" opacity="1.000000" stroke="none" 
	d="
M306.989380,275.725403 
	C307.049164,275.151703 307.449707,274.536163 308.063293,273.739227 
	C307.960907,274.266449 307.645538,274.975006 306.989380,275.725403 
z"/>
<path fill="#00061C" opacity="1.000000" stroke="none" 
	d="
M304.258057,278.928589 
	C304.376923,278.317871 304.841339,277.681305 305.580017,276.918793 
	C305.437347,277.496185 305.020447,278.199463 304.258057,278.928589 
z"/>
<path fill="#061127" opacity="1.000000" stroke="none" 
	d="
M598.265869,767.056274 
	C597.692993,766.780029 597.280273,766.226562 596.809570,765.413452 
	C597.309692,765.695557 597.867859,766.237366 598.265869,767.056274 
z"/>
<path fill="#00061C" opacity="1.000000" stroke="none" 
	d="
M300.824341,283.345398 
	C300.801971,282.843079 301.092529,282.420013 301.621704,281.901062 
	C301.619324,282.345001 301.378296,282.884827 300.824341,283.345398 
z"/>
<path fill="#00061C" opacity="1.000000" stroke="none" 
	d="
M421.825134,773.102051 
	C421.836060,773.465088 421.523132,773.828735 421.001953,774.330688 
	C421.029572,774.013489 421.265442,773.558044 421.825134,773.102051 
z"/>
<path fill="#061127" opacity="1.000000" stroke="none" 
	d="
M424.849670,770.103882 
	C425.132385,770.464844 424.987823,770.746216 424.180664,770.996704 
	C423.419098,771.012451 423.207245,771.001160 422.995422,770.989929 
	C423.508698,770.687317 424.021973,770.384766 424.849670,770.103882 
z"/>
<path fill="#061127" opacity="1.000000" stroke="none" 
	d="
M426.115723,768.791504 
	C426.119659,769.285095 425.846252,769.657471 425.349243,770.096741 
	C425.363281,769.665833 425.600861,769.168030 426.115723,768.791504 
z"/>
<path fill="#061127" opacity="1.000000" stroke="none" 
	d="
M599.860779,768.869934 
	C599.509521,768.890930 599.167114,768.596252 598.707153,768.096191 
	C599.016235,768.112000 599.442932,768.333191 599.860779,768.869934 
z"/>
<path fill="#061127" opacity="1.000000" stroke="none" 
	d="
M605.248901,774.126221 
	C604.752625,774.140381 604.363892,773.866516 603.899841,773.365234 
	C604.335144,773.371277 604.845764,773.604736 605.248901,774.126221 
z"/>
<path fill="#061127" opacity="1.000000" stroke="none" 
	d="
M608.778809,775.714844 
	C608.803162,775.983948 608.597595,776.005554 608.083130,776.053589 
	C607.484802,776.121277 607.209534,776.076355 606.799927,775.794189 
	C607.283997,775.584473 607.916443,775.525879 608.778809,775.714844 
z"/>
<path fill="#00061C" opacity="1.000000" stroke="none" 
	d="
M302.889648,280.644531 
	C302.849548,280.177338 303.131714,279.665802 303.681946,279.031494 
	C303.704010,279.472534 303.457947,280.036346 302.889648,280.644531 
z"/>
<path fill="#00061C" opacity="1.000000" stroke="none" 
	d="
M324.126770,259.861145 
	C324.143951,259.489960 324.494598,259.134369 325.065308,258.638428 
	C325.010315,258.957642 324.735291,259.417236 324.126770,259.861145 
z"/>
<path fill="#00061C" opacity="1.000000" stroke="none" 
	d="
M312.867554,269.250946 
	C312.884674,268.764862 313.182587,268.399841 313.706665,267.961823 
	C313.671356,268.383209 313.409851,268.877594 312.867554,269.250946 
z"/>
<path fill="#00061C" opacity="1.000000" stroke="none" 
	d="
M311.951752,270.166321 
	C311.852081,270.004425 311.981506,269.946777 311.983673,269.909119 
	C311.985840,269.871460 312.311584,270.060822 312.311584,270.060822 
	C312.311584,270.060822 312.051422,270.328186 311.951752,270.166321 
z"/>
<path fill="#00061C" opacity="1.000000" stroke="none" 
	d="
M419.098877,775.346924 
	C419.120575,775.572327 418.854797,775.799011 418.323364,776.089844 
	C418.308899,775.885437 418.560150,775.616760 419.098877,775.346924 
z"/>
<path fill="#00061C" opacity="1.000000" stroke="none" 
	d="
M328.887756,256.421082 
	C328.850708,256.077118 329.126587,255.940109 329.685120,255.856430 
	C329.659088,256.042389 329.403412,256.281799 328.887756,256.421082 
z"/>
<path fill="#00061C" opacity="1.000000" stroke="none" 
	d="
M316.871338,265.357910 
	C316.764709,265.016541 316.968872,264.825745 317.427826,264.631989 
	C317.464478,264.867279 317.297668,265.160431 316.871338,265.357910 
z"/>
<path fill="#00061C" opacity="1.000000" stroke="none" 
	d="
M308.837067,273.342590 
	C308.672791,273.072205 308.768890,272.932037 309.023712,272.762329 
	C309.137848,272.702240 309.380951,273.105927 309.380951,273.105927 
	C309.380951,273.105927 309.052795,273.442230 308.837067,273.342590 
z"/>
<path fill="#00061C" opacity="1.000000" stroke="none" 
	d="
M309.885773,272.248718 
	C309.731537,272.110901 309.927185,271.931152 309.968445,271.879150 
	C310.009735,271.827148 310.320953,272.092590 310.320953,272.092590 
	C310.320953,272.092590 310.040009,272.386505 309.885773,272.248718 
z"/>
<path fill="#00061C" opacity="1.000000" stroke="none" 
	d="
M310.959503,271.161072 
	C310.868317,270.996613 310.986603,270.952667 310.982819,270.917664 
	C310.979034,270.882660 311.306946,271.060120 311.306946,271.060120 
	C311.306946,271.060120 311.050690,271.325531 310.959503,271.161072 
z"/>
<path fill="#00061C" opacity="1.000000" stroke="none" 
	d="
M299.973755,284.745422 
	C299.763550,284.558319 299.842255,284.278137 300.095398,283.837769 
	C300.229553,283.991882 300.227173,284.316772 299.973755,284.745422 
z"/>
<path fill="#061127" opacity="1.000000" stroke="none" 
	d="
M606.431885,775.183655 
	C606.182556,775.385254 606.032349,775.304932 605.858887,775.042969 
	C605.801086,774.925964 606.165588,774.666626 606.165588,774.666626 
	C606.165588,774.666626 606.496460,774.966492 606.431885,775.183655 
z"/>
<path fill="#00061C" opacity="1.000000" stroke="none" 
	d="
M420.085114,774.707581 
	C420.167603,775.052673 419.967010,775.221436 419.525269,775.374268 
	C419.502960,775.137512 419.675568,774.861816 420.085114,774.707581 
z"/>
<path fill="#061127" opacity="1.000000" stroke="none" 
	d="
M603.794312,772.933044 
	C603.573486,773.023010 603.260742,772.851685 602.851074,772.425598 
	C603.070251,772.337769 603.386353,772.504822 603.794312,772.933044 
z"/>
<path fill="#00061C" opacity="1.000000" stroke="none" 
	d="
M422.956909,772.199524 
	C423.015198,772.410400 422.806763,772.700439 422.335632,773.078979 
	C422.278717,772.871216 422.484467,772.574951 422.956909,772.199524 
z"/>
<path fill="#00061C" opacity="1.000000" stroke="none" 
	d="
M423.010712,771.291260 
	C423.207245,771.001160 423.419098,771.012451 423.947144,771.060181 
	C424.065216,771.400757 423.867126,771.704956 423.406952,772.096680 
	C423.105225,771.986877 423.065613,771.789734 423.010712,771.291260 
z"/>
<path fill="#061127" opacity="1.000000" stroke="none" 
	d="
M427.050171,767.825073 
	C427.133423,767.972229 427.020355,767.976501 427.040466,768.000732 
	C427.060608,768.025024 426.743347,767.921143 426.743347,767.921143 
	C426.743347,767.921143 426.966888,767.677917 427.050171,767.825073 
z"/>
<path fill="#00061C" opacity="1.000000" stroke="none" 
	d="
M306.039612,276.781525 
	C305.931549,276.554230 306.092712,276.225342 306.506622,275.779663 
	C306.609192,276.001923 306.459015,276.340912 306.039612,276.781525 
z"/>
<path fill="#061127" opacity="1.000000" stroke="none" 
	d="
M722.222473,278.030151 
	C722.435974,277.980347 722.710327,278.196655 723.056519,278.676270 
	C722.846741,278.725128 722.565002,278.510681 722.222473,278.030151 
z"/>
<path fill="#00061C" opacity="1.000000" stroke="none" 
	d="
M302.050110,281.776489 
	C301.918671,281.555176 302.053223,281.222504 302.420776,280.750336 
	C302.541199,280.962280 302.428650,281.313690 302.050110,281.776489 
z"/>
<path fill="#242632" opacity="1.000000" stroke="none" 
	d="
M585.602417,243.205963 
	C586.044312,402.431427 586.067078,561.790588 586.026245,721.621704 
	C585.677612,718.456116 585.144531,714.818604 585.143311,711.181030 
	C585.091248,555.897522 585.086243,400.613953 585.080261,245.330414 
	C585.080261,244.666809 585.147522,244.003220 585.602417,243.205963 
z"/>
<path fill="#242632" opacity="1.000000" stroke="none" 
	d="
M662.807190,243.778076 
	C661.926086,243.855179 660.732117,243.761169 659.275024,243.420807 
	C660.172729,243.318619 661.333557,243.462784 662.807190,243.778076 
z"/>
</svg>